<svg width="24" height="24" viewBox="0 0 24 24" fill="none" xmlns="http://www.w3.org/2000/svg">
<rect width="24" height="24" rx="4.36364" fill="#9ADBFF"/>
<path d="M6.5 19.841V18.1592H10.8182V16.4774C9.62349 16.4774 8.60497 16.0673 7.76264 15.2472C6.9203 14.427 6.49942 13.4356 6.5 12.2729C6.5 11.474 6.70871 10.7382 7.12614 10.0655C7.54356 9.39275 8.11932 8.88119 8.85341 8.53081C8.79583 8.83915 8.80677 9.14047 8.88623 9.43479C8.96568 9.72911 9.09149 10.0094 9.26364 10.2757C8.93258 10.4999 8.67694 10.7873 8.49673 11.1376C8.31652 11.488 8.2267 11.8664 8.22727 12.2729C8.22727 12.9736 8.47917 13.5693 8.98295 14.0598C9.48674 14.5503 10.0985 14.7956 10.8182 14.7956H17.7273V16.4774H13.4091V18.1592H18.5909V19.841H6.5ZM14.2727 12.357L14.0136 11.5581L13.1932 11.8524L12.7614 10.7382C13.0492 10.514 13.2723 10.244 13.4307 9.92841C13.589 9.61278 13.6682 9.27306 13.6682 8.90922C13.6682 8.25051 13.4307 7.69327 12.9557 7.2375C12.4807 6.78172 11.8977 6.55412 11.2068 6.55468L10.8182 5.50354L11.6386 5.20922L11.3364 4.45241L12.9773 3.86377L13.2364 4.66263L14.0568 4.36831L16.4318 10.6751L15.6114 10.9695L15.9136 11.7683L14.2727 12.357ZM11.25 10.4229C10.8182 10.4229 10.4511 10.2757 10.1489 9.98138C9.84659 9.68706 9.69545 9.32968 9.69545 8.90922C9.69545 8.48877 9.84659 8.13138 10.1489 7.83706C10.4511 7.54275 10.8182 7.39559 11.25 7.39559C11.6818 7.39559 12.0489 7.54275 12.3511 7.83706C12.6534 8.13138 12.8045 8.48877 12.8045 8.90922C12.8045 9.32968 12.6534 9.68706 12.3511 9.98138C12.0489 10.2757 11.6818 10.4229 11.25 10.4229Z" fill="#232323"/>
</svg>
